<svg xmlns="http://www.w3.org/2000/svg" width="800" height="400" viewBox="0 0 800 400">
  <defs>
    <linearGradient id="grad1" x1="0%" y1="0%" x2="100%" y2="100%">
      <stop offset="0%" style="stop-color:#2563EB;stop-opacity:0.9" />
      <stop offset="100%" style="stop-color:#1E40AF;stop-opacity:0.95" />
    </linearGradient>
  </defs>
  <rect width="800" height="400" fill="url(#grad1)" />
  <g fill="#FFFFFF" opacity="0.15">
    <circle cx="200" cy="150" r="40" />
    <circle cx="600" cy="250" r="60" />
    <path d="M100,200 Q400,50 700,200" stroke="#FFFFFF" stroke-width="3" fill="none" />
    <path d="M150,300 Q400,150 650,300" stroke="#FFFFFF" stroke-width="2" fill="none" />
    <path d="M300,100 L500,100 L400,250 Z" fill="#FFFFFF" opacity="0.1" />
    <rect x="200" y="150" width="400" height="100" rx="20" opacity="0.1" />
  </g>
  <g transform="translate(350,180)">
    <path d="M50,0 A50,50 0 1,1 -50,0 A50,50 0 1,1 50,0" fill="none" stroke="#FFFFFF" stroke-width="4" />
    <path d="M-15,-15 L15,15 M-15,15 L15,-15" stroke="#FFFFFF" stroke-width="4" />
  </g>
</svg>